<?xml version="1.0" encoding="UTF-8" standalone="no"?><!DOCTYPE svg PUBLIC "-//W3C//DTD SVG 1.1//EN" "http://www.w3.org/Graphics/SVG/1.1/DTD/svg11.dtd"><!-- Generated by graphviz version 2.40.1 (20161225.0304)
 --><!-- Title: FamilyTree Pages: 1 --><svg xmlns="http://www.w3.org/2000/svg" xmlns:xlink="http://www.w3.org/1999/xlink" width="1406pt" height="578pt" viewBox="0.00 0.00 1406.01 578.20">
<g id="graph0" class="graph" transform="scale(1 1) rotate(0) translate(4 574.2)">
<title>FamilyTree</title>
<polygon fill="#ffffff" stroke="transparent" points="-4,4 -4,-574.2 1402.012,-574.2 1402.012,4 -4,4"/>
<!-- gen1father -->
<g id="node1" class="node">
<title>gen1father</title>
<polygon fill="none" stroke="#ff0000" points="442.6599,-520.1 442.6599,-569.7 695.6109,-569.7 695.6109,-520.1 442.6599,-520.1"/>
<text text-anchor="middle" x="469.3184" y="-553.1" font-family="Times,serif" font-size="14.00" fill="#000000">Name:</text>
<polyline fill="none" stroke="#ff0000" points="442.6599,-544.9 495.9769,-544.9 "/>
<text text-anchor="middle" x="469.3184" y="-528.3" font-family="Times,serif" font-size="14.00" fill="#000000">James</text>
<polyline fill="none" stroke="#ff0000" points="495.9769,-520.1 495.9769,-569.7 "/>
<text text-anchor="middle" x="537.8072" y="-553.1" font-family="Times,serif" font-size="14.00" fill="#000000">Born-Died:</text>
<polyline fill="none" stroke="#ff0000" points="495.9769,-544.9 579.6375,-544.9 "/>
<text text-anchor="middle" x="537.8072" y="-528.3" font-family="Times,serif" font-size="14.00" fill="#000000">1780 - 1860</text>
<polyline fill="none" stroke="#ff0000" points="579.6375,-520.1 579.6375,-569.7 "/>
<text text-anchor="middle" x="601.2434" y="-553.1" font-family="Times,serif" font-size="14.00" fill="#000000">Age:</text>
<polyline fill="none" stroke="#ff0000" points="579.6375,-544.9 622.8493,-544.9 "/>
<text text-anchor="middle" x="601.2434" y="-528.3" font-family="Times,serif" font-size="14.00" fill="#000000">80</text>
<polyline fill="none" stroke="#ff0000" points="622.8493,-520.1 622.8493,-569.7 "/>
<text text-anchor="middle" x="659.2301" y="-553.1" font-family="Times,serif" font-size="14.00" fill="#000000">Clan:</text>
<polyline fill="none" stroke="#ff0000" points="622.8493,-544.9 695.6109,-544.9 "/>
<text text-anchor="middle" x="659.2301" y="-528.3" font-family="Times,serif" font-size="14.00" fill="#000000">Whitmore</text>
</g>
<!-- gen2child1 -->
<g id="node3" class="node">
<title>gen2child1</title>
<polygon fill="none" stroke="#ff0000" points="170.6599,-433.5 170.6599,-483.1 423.6109,-483.1 423.6109,-433.5 170.6599,-433.5"/>
<text text-anchor="middle" x="197.3184" y="-466.5" font-family="Times,serif" font-size="14.00" fill="#000000">Name:</text>
<polyline fill="none" stroke="#ff0000" points="170.6599,-458.3 223.9769,-458.3 "/>
<text text-anchor="middle" x="197.3184" y="-441.7" font-family="Times,serif" font-size="14.00" fill="#000000">John</text>
<polyline fill="none" stroke="#ff0000" points="223.9769,-433.5 223.9769,-483.1 "/>
<text text-anchor="middle" x="265.8072" y="-466.5" font-family="Times,serif" font-size="14.00" fill="#000000">Born-Died:</text>
<polyline fill="none" stroke="#ff0000" points="223.9769,-458.3 307.6375,-458.3 "/>
<text text-anchor="middle" x="265.8072" y="-441.7" font-family="Times,serif" font-size="14.00" fill="#000000">1808 - 1890</text>
<polyline fill="none" stroke="#ff0000" points="307.6375,-433.5 307.6375,-483.1 "/>
<text text-anchor="middle" x="329.2434" y="-466.5" font-family="Times,serif" font-size="14.00" fill="#000000">Age:</text>
<polyline fill="none" stroke="#ff0000" points="307.6375,-458.3 350.8493,-458.3 "/>
<text text-anchor="middle" x="329.2434" y="-441.7" font-family="Times,serif" font-size="14.00" fill="#000000">82</text>
<polyline fill="none" stroke="#ff0000" points="350.8493,-433.5 350.8493,-483.1 "/>
<text text-anchor="middle" x="387.2301" y="-466.5" font-family="Times,serif" font-size="14.00" fill="#000000">Clan:</text>
<polyline fill="none" stroke="#ff0000" points="350.8493,-458.3 423.6109,-458.3 "/>
<text text-anchor="middle" x="387.2301" y="-441.7" font-family="Times,serif" font-size="14.00" fill="#000000">Whitmore</text>
</g>
<!-- gen1father&#45;&gt;gen2child1 -->
<g id="edge1" class="edge">
<title>gen1father-&gt;gen2child1</title>
<path fill="none" stroke="#000000" d="M491.1911,-520.0839C457.9008,-509.4849 418.8972,-497.0668 384.6238,-486.1548"/>
<polygon fill="#000000" stroke="#000000" points="385.6816,-482.8185 375.0911,-483.1197 383.5579,-489.4886 385.6816,-482.8185"/>
</g>
<!-- gen2child2 -->
<g id="node4" class="node">
<title>gen2child2</title>
<polygon fill="none" stroke="#ff0000" points="989.3773,-433.5 989.3773,-483.1 1250.8935,-483.1 1250.8935,-433.5 989.3773,-433.5"/>
<text text-anchor="middle" x="1020.3184" y="-466.5" font-family="Times,serif" font-size="14.00" fill="#000000">Name:</text>
<polyline fill="none" stroke="#ff0000" points="989.3773,-458.3 1051.2595,-458.3 "/>
<text text-anchor="middle" x="1020.3184" y="-441.7" font-family="Times,serif" font-size="14.00" fill="#000000">William</text>
<polyline fill="none" stroke="#ff0000" points="1051.2595,-433.5 1051.2595,-483.1 "/>
<text text-anchor="middle" x="1093.0898" y="-466.5" font-family="Times,serif" font-size="14.00" fill="#000000">Born-Died:</text>
<polyline fill="none" stroke="#ff0000" points="1051.2595,-458.3 1134.9201,-458.3 "/>
<text text-anchor="middle" x="1093.0898" y="-441.7" font-family="Times,serif" font-size="14.00" fill="#000000">1810 - 1888</text>
<polyline fill="none" stroke="#ff0000" points="1134.9201,-433.5 1134.9201,-483.1 "/>
<text text-anchor="middle" x="1156.526" y="-466.5" font-family="Times,serif" font-size="14.00" fill="#000000">Age:</text>
<polyline fill="none" stroke="#ff0000" points="1134.9201,-458.3 1178.1319,-458.3 "/>
<text text-anchor="middle" x="1156.526" y="-441.7" font-family="Times,serif" font-size="14.00" fill="#000000">78</text>
<polyline fill="none" stroke="#ff0000" points="1178.1319,-433.5 1178.1319,-483.1 "/>
<text text-anchor="middle" x="1214.5127" y="-466.5" font-family="Times,serif" font-size="14.00" fill="#000000">Clan:</text>
<polyline fill="none" stroke="#ff0000" points="1178.1319,-458.3 1250.8935,-458.3 "/>
<text text-anchor="middle" x="1214.5127" y="-441.7" font-family="Times,serif" font-size="14.00" fill="#000000">Whitmore</text>
</g>
<!-- gen1father&#45;&gt;gen2child2 -->
<g id="edge3" class="edge">
<title>gen1father-&gt;gen2child2</title>
<path fill="none" stroke="#000000" d="M695.6181,-521.2948C699.16,-520.7133 702.6712,-520.1471 706.1354,-519.6 824.2574,-500.9462 857.0637,-502.4314 978.9118,-483.7561"/>
<polygon fill="#000000" stroke="#000000" points="979.6633,-487.1816 989.0106,-482.1937 978.593,-480.2639 979.6633,-487.1816"/>
</g>
<!-- gen2child3 -->
<g id="node5" class="node">
<title>gen2child3</title>
<polygon fill="none" stroke="#a020f0" points="712.9439,-433.5 712.9439,-483.1 971.3269,-483.1 971.3269,-433.5 712.9439,-433.5"/>
<text text-anchor="middle" x="739.6024" y="-466.5" font-family="Times,serif" font-size="14.00" fill="#000000">Name:</text>
<polyline fill="none" stroke="#a020f0" points="712.9439,-458.3 766.2609,-458.3 "/>
<text text-anchor="middle" x="739.6024" y="-441.7" font-family="Times,serif" font-size="14.00" fill="#000000">Susan</text>
<polyline fill="none" stroke="#a020f0" points="766.2609,-433.5 766.2609,-483.1 "/>
<text text-anchor="middle" x="808.0912" y="-466.5" font-family="Times,serif" font-size="14.00" fill="#000000">Born-Died:</text>
<polyline fill="none" stroke="#a020f0" points="766.2609,-458.3 849.9215,-458.3 "/>
<text text-anchor="middle" x="808.0912" y="-441.7" font-family="Times,serif" font-size="14.00" fill="#000000">1814 - 1893</text>
<polyline fill="none" stroke="#a020f0" points="849.9215,-433.5 849.9215,-483.1 "/>
<text text-anchor="middle" x="871.5274" y="-466.5" font-family="Times,serif" font-size="14.00" fill="#000000">Age:</text>
<polyline fill="none" stroke="#a020f0" points="849.9215,-458.3 893.1333,-458.3 "/>
<text text-anchor="middle" x="871.5274" y="-441.7" font-family="Times,serif" font-size="14.00" fill="#000000">79</text>
<polyline fill="none" stroke="#a020f0" points="893.1333,-433.5 893.1333,-483.1 "/>
<text text-anchor="middle" x="932.2301" y="-466.5" font-family="Times,serif" font-size="14.00" fill="#000000">Clan:</text>
<polyline fill="none" stroke="#a020f0" points="893.1333,-458.3 971.3269,-458.3 "/>
<text text-anchor="middle" x="932.2301" y="-441.7" font-family="Times,serif" font-size="14.00" fill="#000000">Hawthorne</text>
</g>
<!-- gen1father&#45;&gt;gen2child3 -->
<g id="edge5" class="edge">
<title>gen1father-&gt;gen2child3</title>
<path fill="none" stroke="#000000" d="M647.3662,-520.0839C680.7789,-509.4849 719.926,-497.0668 754.3254,-486.1548"/>
<polygon fill="#000000" stroke="#000000" points="755.4195,-489.4796 763.8931,-483.1197 753.3029,-482.8073 755.4195,-489.4796"/>
</g>
<!-- gen2child4 -->
<g id="node6" class="node">
<title>gen2child4</title>
<polygon fill="none" stroke="#ff0000" points="441.2672,-433.5 441.2672,-483.1 695.0036,-483.1 695.0036,-433.5 441.2672,-433.5"/>
<text text-anchor="middle" x="468.3184" y="-466.5" font-family="Times,serif" font-size="14.00" fill="#000000">Name:</text>
<polyline fill="none" stroke="#ff0000" points="441.2672,-458.3 495.3696,-458.3 "/>
<text text-anchor="middle" x="468.3184" y="-441.7" font-family="Times,serif" font-size="14.00" fill="#000000">Robert</text>
<polyline fill="none" stroke="#ff0000" points="495.3696,-433.5 495.3696,-483.1 "/>
<text text-anchor="middle" x="537.1999" y="-466.5" font-family="Times,serif" font-size="14.00" fill="#000000">Born-Died:</text>
<polyline fill="none" stroke="#ff0000" points="495.3696,-458.3 579.0302,-458.3 "/>
<text text-anchor="middle" x="537.1999" y="-441.7" font-family="Times,serif" font-size="14.00" fill="#000000">1816 - 1889</text>
<polyline fill="none" stroke="#ff0000" points="579.0302,-433.5 579.0302,-483.1 "/>
<text text-anchor="middle" x="600.6361" y="-466.5" font-family="Times,serif" font-size="14.00" fill="#000000">Age:</text>
<polyline fill="none" stroke="#ff0000" points="579.0302,-458.3 622.242,-458.3 "/>
<text text-anchor="middle" x="600.6361" y="-441.7" font-family="Times,serif" font-size="14.00" fill="#000000">73</text>
<polyline fill="none" stroke="#ff0000" points="622.242,-433.5 622.242,-483.1 "/>
<text text-anchor="middle" x="658.6228" y="-466.5" font-family="Times,serif" font-size="14.00" fill="#000000">Clan:</text>
<polyline fill="none" stroke="#ff0000" points="622.242,-458.3 695.0036,-458.3 "/>
<text text-anchor="middle" x="658.6228" y="-441.7" font-family="Times,serif" font-size="14.00" fill="#000000">Whitmore</text>
</g>
<!-- gen1father&#45;&gt;gen2child4 -->
<g id="edge7" class="edge">
<title>gen1father-&gt;gen2child4</title>
<path fill="none" stroke="#000000" d="M568.8462,-519.8517C568.7508,-511.5937 568.6429,-502.2517 568.5406,-493.3864"/>
<polygon fill="#000000" stroke="#000000" points="572.0393,-493.2509 568.424,-483.292 565.0398,-493.3318 572.0393,-493.2509"/>
</g>
<!-- gen1mother -->
<g id="node2" class="node">
<title>gen1mother</title>
<polygon fill="none" stroke="#a020f0" points="714.6599,-520.1 714.6599,-569.7 967.6109,-569.7 967.6109,-520.1 714.6599,-520.1"/>
<text text-anchor="middle" x="741.3184" y="-553.1" font-family="Times,serif" font-size="14.00" fill="#000000">Name:</text>
<polyline fill="none" stroke="#a020f0" points="714.6599,-544.9 767.9769,-544.9 "/>
<text text-anchor="middle" x="741.3184" y="-528.3" font-family="Times,serif" font-size="14.00" fill="#000000">Mary</text>
<polyline fill="none" stroke="#a020f0" points="767.9769,-520.1 767.9769,-569.7 "/>
<text text-anchor="middle" x="809.8072" y="-553.1" font-family="Times,serif" font-size="14.00" fill="#000000">Born-Died:</text>
<polyline fill="none" stroke="#a020f0" points="767.9769,-544.9 851.6375,-544.9 "/>
<text text-anchor="middle" x="809.8072" y="-528.3" font-family="Times,serif" font-size="14.00" fill="#000000">1788 - 1878</text>
<polyline fill="none" stroke="#a020f0" points="851.6375,-520.1 851.6375,-569.7 "/>
<text text-anchor="middle" x="873.2434" y="-553.1" font-family="Times,serif" font-size="14.00" fill="#000000">Age:</text>
<polyline fill="none" stroke="#a020f0" points="851.6375,-544.9 894.8493,-544.9 "/>
<text text-anchor="middle" x="873.2434" y="-528.3" font-family="Times,serif" font-size="14.00" fill="#000000">90</text>
<polyline fill="none" stroke="#a020f0" points="894.8493,-520.1 894.8493,-569.7 "/>
<text text-anchor="middle" x="931.2301" y="-553.1" font-family="Times,serif" font-size="14.00" fill="#000000">Clan:</text>
<polyline fill="none" stroke="#a020f0" points="894.8493,-544.9 967.6109,-544.9 "/>
<text text-anchor="middle" x="931.2301" y="-528.3" font-family="Times,serif" font-size="14.00" fill="#000000">Whitmore</text>
</g>
<!-- gen1mother&#45;&gt;gen2child1 -->
<g id="edge2" class="edge">
<title>gen1mother-&gt;gen2child1</title>
<path fill="none" stroke="#000000" d="M714.652,-521.2992C711.1103,-520.7164 707.5993,-520.1487 704.1354,-519.6 586.8697,-501.0244 554.2558,-502.7306 433.9065,-483.8478"/>
<polygon fill="#000000" stroke="#000000" points="434.3569,-480.3756 423.9324,-482.2676 433.2615,-487.2893 434.3569,-480.3756"/>
</g>
<!-- gen1mother&#45;&gt;gen2child2 -->
<g id="edge4" class="edge">
<title>gen1mother-&gt;gen2child2</title>
<path fill="none" stroke="#000000" d="M921.0856,-520.0839C955.2326,-509.4849 995.2401,-497.0668 1030.3955,-486.1548"/>
<polygon fill="#000000" stroke="#000000" points="1031.6606,-489.4269 1040.1735,-483.1197 1029.5854,-482.7415 1031.6606,-489.4269"/>
</g>
<!-- gen1mother&#45;&gt;gen2child3 -->
<g id="edge6" class="edge">
<title>gen1mother-&gt;gen2child3</title>
<path fill="none" stroke="#000000" d="M841.4246,-519.8517C841.52,-511.5937 841.6279,-502.2517 841.7302,-493.3864"/>
<polygon fill="#000000" stroke="#000000" points="845.231,-493.3318 841.8468,-483.292 838.2315,-493.2509 845.231,-493.3318"/>
</g>
<!-- gen1mother&#45;&gt;gen2child4 -->
<g id="edge8" class="edge">
<title>gen1mother-&gt;gen2child4</title>
<path fill="none" stroke="#000000" d="M762.9046,-520.0839C729.4919,-509.4849 690.3448,-497.0668 655.9454,-486.1548"/>
<polygon fill="#000000" stroke="#000000" points="656.9679,-482.8073 646.3777,-483.1197 654.8513,-489.4796 656.9679,-482.8073"/>
</g>
<!-- gen3child1 -->
<g id="node7" class="node">
<title>gen3child1</title>
<polygon fill="none" stroke="#ff0000" points="294.3836,-346.9 294.3836,-396.5 555.8872,-396.5 555.8872,-346.9 294.3836,-346.9"/>
<text text-anchor="middle" x="325.3184" y="-379.9" font-family="Times,serif" font-size="14.00" fill="#000000">Name:</text>
<polyline fill="none" stroke="#ff0000" points="294.3836,-371.7 356.2532,-371.7 "/>
<text text-anchor="middle" x="325.3184" y="-355.1" font-family="Times,serif" font-size="14.00" fill="#000000">Michael</text>
<polyline fill="none" stroke="#ff0000" points="356.2532,-346.9 356.2532,-396.5 "/>
<text text-anchor="middle" x="398.0835" y="-379.9" font-family="Times,serif" font-size="14.00" fill="#000000">Born-Died:</text>
<polyline fill="none" stroke="#ff0000" points="356.2532,-371.7 439.9138,-371.7 "/>
<text text-anchor="middle" x="398.0835" y="-355.1" font-family="Times,serif" font-size="14.00" fill="#000000">1839 - 1899</text>
<polyline fill="none" stroke="#ff0000" points="439.9138,-346.9 439.9138,-396.5 "/>
<text text-anchor="middle" x="461.5197" y="-379.9" font-family="Times,serif" font-size="14.00" fill="#000000">Age:</text>
<polyline fill="none" stroke="#ff0000" points="439.9138,-371.7 483.1256,-371.7 "/>
<text text-anchor="middle" x="461.5197" y="-355.1" font-family="Times,serif" font-size="14.00" fill="#000000">60</text>
<polyline fill="none" stroke="#ff0000" points="483.1256,-346.9 483.1256,-396.5 "/>
<text text-anchor="middle" x="519.5064" y="-379.9" font-family="Times,serif" font-size="14.00" fill="#000000">Clan:</text>
<polyline fill="none" stroke="#ff0000" points="483.1256,-371.7 555.8872,-371.7 "/>
<text text-anchor="middle" x="519.5064" y="-355.1" font-family="Times,serif" font-size="14.00" fill="#000000">Whitmore</text>
</g>
<!-- gen2child1&#45;&gt;gen3child1 -->
<g id="edge9" class="edge">
<title>gen2child1-&gt;gen3child1</title>
<path fill="none" stroke="#000000" d="M333.8151,-433.4839C348.1421,-423.7908 364.7178,-412.5763 379.7831,-402.3836"/>
<polygon fill="#000000" stroke="#000000" points="382.1292,-405.0222 388.4504,-396.5197 378.2066,-399.2245 382.1292,-405.0222"/>
</g>
<!-- gen3child2 -->
<g id="node8" class="node">
<title>gen3child2</title>
<polygon fill="none" stroke="#a020f0" points="0,-346.9 0,-396.5 276.2708,-396.5 276.2708,-346.9 0,-346.9"/>
<text text-anchor="middle" x="30.5428" y="-379.9" font-family="Times,serif" font-size="14.00" fill="#000000">Name:</text>
<polyline fill="none" stroke="#a020f0" points="0,-371.7 61.0856,-371.7 "/>
<text text-anchor="middle" x="30.5428" y="-355.1" font-family="Times,serif" font-size="14.00" fill="#000000">Jennifer</text>
<polyline fill="none" stroke="#a020f0" points="61.0856,-346.9 61.0856,-396.5 "/>
<text text-anchor="middle" x="102.9159" y="-379.9" font-family="Times,serif" font-size="14.00" fill="#000000">Born-Died:</text>
<polyline fill="none" stroke="#a020f0" points="61.0856,-371.7 144.7462,-371.7 "/>
<text text-anchor="middle" x="102.9159" y="-355.1" font-family="Times,serif" font-size="14.00" fill="#000000">1841 - 1906</text>
<polyline fill="none" stroke="#a020f0" points="144.7462,-346.9 144.7462,-396.5 "/>
<text text-anchor="middle" x="166.3521" y="-379.9" font-family="Times,serif" font-size="14.00" fill="#000000">Age:</text>
<polyline fill="none" stroke="#a020f0" points="144.7462,-371.7 187.958,-371.7 "/>
<text text-anchor="middle" x="166.3521" y="-355.1" font-family="Times,serif" font-size="14.00" fill="#000000">65</text>
<polyline fill="none" stroke="#a020f0" points="187.958,-346.9 187.958,-396.5 "/>
<text text-anchor="middle" x="232.1144" y="-379.9" font-family="Times,serif" font-size="14.00" fill="#000000">Clan:</text>
<polyline fill="none" stroke="#a020f0" points="187.958,-371.7 276.2708,-371.7 "/>
<text text-anchor="middle" x="232.1144" y="-355.1" font-family="Times,serif" font-size="14.00" fill="#000000">Chamberlain</text>
</g>
<!-- gen2child1&#45;&gt;gen3child2 -->
<g id="edge10" class="edge">
<title>gen2child1-&gt;gen3child2</title>
<path fill="none" stroke="#000000" d="M251.5724,-433.4839C233.1934,-423.4737 211.8353,-411.841 192.6412,-401.3868"/>
<polygon fill="#000000" stroke="#000000" points="194.1611,-398.2292 183.7051,-396.5197 190.8129,-404.3765 194.1611,-398.2292"/>
</g>
<!-- gen3child3 -->
<g id="node9" class="node">
<title>gen3child3</title>
<polygon fill="none" stroke="#a020f0" points="712.1515,-346.9 712.1515,-396.5 972.1193,-396.5 972.1193,-346.9 712.1515,-346.9"/>
<text text-anchor="middle" x="738.81" y="-379.9" font-family="Times,serif" font-size="14.00" fill="#000000">Name:</text>
<polyline fill="none" stroke="#a020f0" points="712.1515,-371.7 765.4685,-371.7 "/>
<text text-anchor="middle" x="738.81" y="-355.1" font-family="Times,serif" font-size="14.00" fill="#000000">Linda</text>
<polyline fill="none" stroke="#a020f0" points="765.4685,-346.9 765.4685,-396.5 "/>
<text text-anchor="middle" x="807.2988" y="-379.9" font-family="Times,serif" font-size="14.00" fill="#000000">Born-Died:</text>
<polyline fill="none" stroke="#a020f0" points="765.4685,-371.7 849.1291,-371.7 "/>
<text text-anchor="middle" x="807.2988" y="-355.1" font-family="Times,serif" font-size="14.00" fill="#000000">1846 - 1910</text>
<polyline fill="none" stroke="#a020f0" points="849.1291,-346.9 849.1291,-396.5 "/>
<text text-anchor="middle" x="870.735" y="-379.9" font-family="Times,serif" font-size="14.00" fill="#000000">Age:</text>
<polyline fill="none" stroke="#a020f0" points="849.1291,-371.7 892.3409,-371.7 "/>
<text text-anchor="middle" x="870.735" y="-355.1" font-family="Times,serif" font-size="14.00" fill="#000000">64</text>
<polyline fill="none" stroke="#a020f0" points="892.3409,-346.9 892.3409,-396.5 "/>
<text text-anchor="middle" x="932.2301" y="-379.9" font-family="Times,serif" font-size="14.00" fill="#000000">Clan:</text>
<polyline fill="none" stroke="#a020f0" points="892.3409,-371.7 972.1193,-371.7 "/>
<text text-anchor="middle" x="932.2301" y="-355.1" font-family="Times,serif" font-size="14.00" fill="#000000">Huntington</text>
</g>
<!-- gen2child3&#45;&gt;gen3child3 -->
<g id="edge11" class="edge">
<title>gen2child3-&gt;gen3child3</title>
<path fill="none" stroke="#000000" d="M842.1354,-433.2517C842.1354,-424.9937 842.1354,-415.6517 842.1354,-406.7864"/>
<polygon fill="#000000" stroke="#000000" points="845.6355,-406.692 842.1354,-396.692 838.6355,-406.692 845.6355,-406.692"/>
</g>
<!-- gen4child1 -->
<g id="node10" class="node">
<title>gen4child1</title>
<polygon fill="none" stroke="#ff0000" points="298.6599,-260.3 298.6599,-309.9 551.6109,-309.9 551.6109,-260.3 298.6599,-260.3"/>
<text text-anchor="middle" x="325.3184" y="-293.3" font-family="Times,serif" font-size="14.00" fill="#000000">Name:</text>
<polyline fill="none" stroke="#ff0000" points="298.6599,-285.1 351.9769,-285.1 "/>
<text text-anchor="middle" x="325.3184" y="-268.5" font-family="Times,serif" font-size="14.00" fill="#000000">Daniel</text>
<polyline fill="none" stroke="#ff0000" points="351.9769,-260.3 351.9769,-309.9 "/>
<text text-anchor="middle" x="393.8072" y="-293.3" font-family="Times,serif" font-size="14.00" fill="#000000">Born-Died:</text>
<polyline fill="none" stroke="#ff0000" points="351.9769,-285.1 435.6375,-285.1 "/>
<text text-anchor="middle" x="393.8072" y="-268.5" font-family="Times,serif" font-size="14.00" fill="#000000">1871 - 1928</text>
<polyline fill="none" stroke="#ff0000" points="435.6375,-260.3 435.6375,-309.9 "/>
<text text-anchor="middle" x="457.2434" y="-293.3" font-family="Times,serif" font-size="14.00" fill="#000000">Age:</text>
<polyline fill="none" stroke="#ff0000" points="435.6375,-285.1 478.8493,-285.1 "/>
<text text-anchor="middle" x="457.2434" y="-268.5" font-family="Times,serif" font-size="14.00" fill="#000000">57</text>
<polyline fill="none" stroke="#ff0000" points="478.8493,-260.3 478.8493,-309.9 "/>
<text text-anchor="middle" x="515.2301" y="-293.3" font-family="Times,serif" font-size="14.00" fill="#000000">Clan:</text>
<polyline fill="none" stroke="#ff0000" points="478.8493,-285.1 551.6109,-285.1 "/>
<text text-anchor="middle" x="515.2301" y="-268.5" font-family="Times,serif" font-size="14.00" fill="#000000">Whitmore</text>
</g>
<!-- gen3child1&#45;&gt;gen4child1 -->
<g id="edge12" class="edge">
<title>gen3child1-&gt;gen4child1</title>
<path fill="none" stroke="#000000" d="M425.1354,-346.6517C425.1354,-338.3937 425.1354,-329.0517 425.1354,-320.1864"/>
<polygon fill="#000000" stroke="#000000" points="428.6355,-320.092 425.1354,-310.092 421.6355,-320.092 428.6355,-320.092"/>
</g>
<!-- gen4child2 -->
<g id="node11" class="node">
<title>gen4child2</title>
<polygon fill="none" stroke="#ff0000" points="697.7609,-260.3 697.7609,-309.9 986.5099,-309.9 986.5099,-260.3 697.7609,-260.3"/>
<text text-anchor="middle" x="738.81" y="-293.3" font-family="Times,serif" font-size="14.00" fill="#000000">Name:</text>
<polyline fill="none" stroke="#ff0000" points="697.7609,-285.1 779.8591,-285.1 "/>
<text text-anchor="middle" x="738.81" y="-268.5" font-family="Times,serif" font-size="14.00" fill="#000000">Christopher</text>
<polyline fill="none" stroke="#ff0000" points="779.8591,-260.3 779.8591,-309.9 "/>
<text text-anchor="middle" x="821.6894" y="-293.3" font-family="Times,serif" font-size="14.00" fill="#000000">Born-Died:</text>
<polyline fill="none" stroke="#ff0000" points="779.8591,-285.1 863.5197,-285.1 "/>
<text text-anchor="middle" x="821.6894" y="-268.5" font-family="Times,serif" font-size="14.00" fill="#000000">1875 - 1925</text>
<polyline fill="none" stroke="#ff0000" points="863.5197,-260.3 863.5197,-309.9 "/>
<text text-anchor="middle" x="885.1256" y="-293.3" font-family="Times,serif" font-size="14.00" fill="#000000">Age:</text>
<polyline fill="none" stroke="#ff0000" points="863.5197,-285.1 906.7315,-285.1 "/>
<text text-anchor="middle" x="885.1256" y="-268.5" font-family="Times,serif" font-size="14.00" fill="#000000">50</text>
<polyline fill="none" stroke="#ff0000" points="906.7315,-260.3 906.7315,-309.9 "/>
<text text-anchor="middle" x="946.6207" y="-293.3" font-family="Times,serif" font-size="14.00" fill="#000000">Clan:</text>
<polyline fill="none" stroke="#ff0000" points="906.7315,-285.1 986.5099,-285.1 "/>
<text text-anchor="middle" x="946.6207" y="-268.5" font-family="Times,serif" font-size="14.00" fill="#000000">Huntington</text>
</g>
<!-- gen3child3&#45;&gt;gen4child2 -->
<g id="edge13" class="edge">
<title>gen3child3-&gt;gen4child2</title>
<path fill="none" stroke="#000000" d="M842.1354,-346.6517C842.1354,-338.3937 842.1354,-329.0517 842.1354,-320.1864"/>
<polygon fill="#000000" stroke="#000000" points="845.6355,-320.092 842.1354,-310.092 838.6355,-320.092 845.6355,-320.092"/>
</g>
<!-- gen5child1 -->
<g id="node12" class="node">
<title>gen5child1</title>
<polygon fill="none" stroke="#a020f0" points="575.27,-173.7 575.27,-223.3 829.0008,-223.3 829.0008,-173.7 575.27,-173.7"/>
<text text-anchor="middle" x="608.1501" y="-206.7" font-family="Times,serif" font-size="14.00" fill="#000000">Name:</text>
<polyline fill="none" stroke="#a020f0" points="575.27,-198.5 641.0302,-198.5 "/>
<text text-anchor="middle" x="608.1501" y="-181.9" font-family="Times,serif" font-size="14.00" fill="#000000">Michelle</text>
<polyline fill="none" stroke="#a020f0" points="641.0302,-173.7 641.0302,-223.3 "/>
<text text-anchor="middle" x="682.8605" y="-206.7" font-family="Times,serif" font-size="14.00" fill="#000000">Born-Died:</text>
<polyline fill="none" stroke="#a020f0" points="641.0302,-198.5 724.6908,-198.5 "/>
<text text-anchor="middle" x="682.8605" y="-181.9" font-family="Times,serif" font-size="14.00" fill="#000000">1906 - 1973</text>
<polyline fill="none" stroke="#a020f0" points="724.6908,-173.7 724.6908,-223.3 "/>
<text text-anchor="middle" x="746.2967" y="-206.7" font-family="Times,serif" font-size="14.00" fill="#000000">Age:</text>
<polyline fill="none" stroke="#a020f0" points="724.6908,-198.5 767.9026,-198.5 "/>
<text text-anchor="middle" x="746.2967" y="-181.9" font-family="Times,serif" font-size="14.00" fill="#000000">71</text>
<polyline fill="none" stroke="#a020f0" points="767.9026,-173.7 767.9026,-223.3 "/>
<text text-anchor="middle" x="798.4517" y="-206.7" font-family="Times,serif" font-size="14.00" fill="#000000">Clan:</text>
<polyline fill="none" stroke="#a020f0" points="767.9026,-198.5 829.0008,-198.5 "/>
<text text-anchor="middle" x="798.4517" y="-181.9" font-family="Times,serif" font-size="14.00" fill="#000000">Prescott</text>
</g>
<!-- gen4child2&#45;&gt;gen5child1 -->
<g id="edge14" class="edge">
<title>gen4child2-&gt;gen5child1</title>
<path fill="none" stroke="#000000" d="M802.017,-260.2839C786.0539,-250.4096 767.5385,-238.9565 750.8172,-228.6132"/>
<polygon fill="#000000" stroke="#000000" points="752.6054,-225.6038 742.2596,-223.3197 748.9229,-231.5569 752.6054,-225.6038"/>
</g>
<!-- gen5child2 -->
<g id="node13" class="node">
<title>gen5child2</title>
<polygon fill="none" stroke="#ff0000" points="846.9292,-173.7 846.9292,-223.3 1119.3416,-223.3 1119.3416,-173.7 846.9292,-173.7"/>
<text text-anchor="middle" x="879.81" y="-206.7" font-family="Times,serif" font-size="14.00" fill="#000000">Name:</text>
<polyline fill="none" stroke="#ff0000" points="846.9292,-198.5 912.6908,-198.5 "/>
<text text-anchor="middle" x="879.81" y="-181.9" font-family="Times,serif" font-size="14.00" fill="#000000">Matthew</text>
<polyline fill="none" stroke="#ff0000" points="912.6908,-173.7 912.6908,-223.3 "/>
<text text-anchor="middle" x="954.5211" y="-206.7" font-family="Times,serif" font-size="14.00" fill="#000000">Born-Died:</text>
<polyline fill="none" stroke="#ff0000" points="912.6908,-198.5 996.3514,-198.5 "/>
<text text-anchor="middle" x="954.5211" y="-181.9" font-family="Times,serif" font-size="14.00" fill="#000000">1908 - 1959</text>
<polyline fill="none" stroke="#ff0000" points="996.3514,-173.7 996.3514,-223.3 "/>
<text text-anchor="middle" x="1017.9573" y="-206.7" font-family="Times,serif" font-size="14.00" fill="#000000">Age:</text>
<polyline fill="none" stroke="#ff0000" points="996.3514,-198.5 1039.5632,-198.5 "/>
<text text-anchor="middle" x="1017.9573" y="-181.9" font-family="Times,serif" font-size="14.00" fill="#000000">45</text>
<polyline fill="none" stroke="#ff0000" points="1039.5632,-173.7 1039.5632,-223.3 "/>
<text text-anchor="middle" x="1079.4524" y="-206.7" font-family="Times,serif" font-size="14.00" fill="#000000">Clan:</text>
<polyline fill="none" stroke="#ff0000" points="1039.5632,-198.5 1119.3416,-198.5 "/>
<text text-anchor="middle" x="1079.4524" y="-181.9" font-family="Times,serif" font-size="14.00" fill="#000000">Huntington</text>
</g>
<!-- gen4child2&#45;&gt;gen5child2 -->
<g id="edge15" class="edge">
<title>gen4child2-&gt;gen5child2</title>
<path fill="none" stroke="#000000" d="M882.5403,-260.2839C898.6175,-250.4096 917.2651,-238.9565 934.1058,-228.6132"/>
<polygon fill="#000000" stroke="#000000" points="936.0352,-231.5357 942.7246,-223.3197 932.3716,-225.5709 936.0352,-231.5357"/>
</g>
<!-- gen6child1 -->
<g id="node14" class="node">
<title>gen6child1</title>
<polygon fill="none" stroke="#ff0000" points="317.0982,-87.1 317.0982,-136.7 559.1726,-136.7 559.1726,-87.1 317.0982,-87.1"/>
<text text-anchor="middle" x="344.1501" y="-120.1" font-family="Times,serif" font-size="14.00" fill="#000000">Name:</text>
<polyline fill="none" stroke="#ff0000" points="317.0982,-111.9 371.202,-111.9 "/>
<text text-anchor="middle" x="344.1501" y="-95.3" font-family="Times,serif" font-size="14.00" fill="#000000">Joseph</text>
<polyline fill="none" stroke="#ff0000" points="371.202,-87.1 371.202,-136.7 "/>
<text text-anchor="middle" x="413.0323" y="-120.1" font-family="Times,serif" font-size="14.00" fill="#000000">Born-Died:</text>
<polyline fill="none" stroke="#ff0000" points="371.202,-111.9 454.8626,-111.9 "/>
<text text-anchor="middle" x="413.0323" y="-95.3" font-family="Times,serif" font-size="14.00" fill="#000000">1939 - 1980</text>
<polyline fill="none" stroke="#ff0000" points="454.8626,-87.1 454.8626,-136.7 "/>
<text text-anchor="middle" x="476.4685" y="-120.1" font-family="Times,serif" font-size="14.00" fill="#000000">Age:</text>
<polyline fill="none" stroke="#ff0000" points="454.8626,-111.9 498.0744,-111.9 "/>
<text text-anchor="middle" x="476.4685" y="-95.3" font-family="Times,serif" font-size="14.00" fill="#000000">41</text>
<polyline fill="none" stroke="#ff0000" points="498.0744,-87.1 498.0744,-136.7 "/>
<text text-anchor="middle" x="528.6235" y="-120.1" font-family="Times,serif" font-size="14.00" fill="#000000">Clan:</text>
<polyline fill="none" stroke="#ff0000" points="498.0744,-111.9 559.1726,-111.9 "/>
<text text-anchor="middle" x="528.6235" y="-95.3" font-family="Times,serif" font-size="14.00" fill="#000000">Prescott</text>
</g>
<!-- gen5child1&#45;&gt;gen6child1 -->
<g id="edge16" class="edge">
<title>gen5child1-&gt;gen6child1</title>
<path fill="none" stroke="#000000" d="M626.4836,-173.6839C594.3105,-163.1302 556.6394,-150.7729 523.4773,-139.8947"/>
<polygon fill="#000000" stroke="#000000" points="524.391,-136.511 513.7983,-136.7197 522.2092,-143.1623 524.391,-136.511"/>
</g>
<!-- gen6child2 -->
<g id="node15" class="node">
<title>gen6child2</title>
<polygon fill="none" stroke="#ff0000" points="577.2693,-87.1 577.2693,-136.7 831.0015,-136.7 831.0015,-87.1 577.2693,-87.1"/>
<text text-anchor="middle" x="610.1501" y="-120.1" font-family="Times,serif" font-size="14.00" fill="#000000">Name:</text>
<polyline fill="none" stroke="#ff0000" points="577.2693,-111.9 643.0309,-111.9 "/>
<text text-anchor="middle" x="610.1501" y="-95.3" font-family="Times,serif" font-size="14.00" fill="#000000">Nicholas</text>
<polyline fill="none" stroke="#ff0000" points="643.0309,-87.1 643.0309,-136.7 "/>
<text text-anchor="middle" x="684.8612" y="-120.1" font-family="Times,serif" font-size="14.00" fill="#000000">Born-Died:</text>
<polyline fill="none" stroke="#ff0000" points="643.0309,-111.9 726.6915,-111.9 "/>
<text text-anchor="middle" x="684.8612" y="-95.3" font-family="Times,serif" font-size="14.00" fill="#000000">1941 - 1985</text>
<polyline fill="none" stroke="#ff0000" points="726.6915,-87.1 726.6915,-136.7 "/>
<text text-anchor="middle" x="748.2974" y="-120.1" font-family="Times,serif" font-size="14.00" fill="#000000">Age:</text>
<polyline fill="none" stroke="#ff0000" points="726.6915,-111.9 769.9033,-111.9 "/>
<text text-anchor="middle" x="748.2974" y="-95.3" font-family="Times,serif" font-size="14.00" fill="#000000">44</text>
<polyline fill="none" stroke="#ff0000" points="769.9033,-87.1 769.9033,-136.7 "/>
<text text-anchor="middle" x="800.4524" y="-120.1" font-family="Times,serif" font-size="14.00" fill="#000000">Clan:</text>
<polyline fill="none" stroke="#ff0000" points="769.9033,-111.9 831.0015,-111.9 "/>
<text text-anchor="middle" x="800.4524" y="-95.3" font-family="Times,serif" font-size="14.00" fill="#000000">Prescott</text>
</g>
<!-- gen5child1&#45;&gt;gen6child2 -->
<g id="edge17" class="edge">
<title>gen5child1-&gt;gen6child2</title>
<path fill="none" stroke="#000000" d="M702.7139,-173.4517C702.9046,-165.1937 703.1204,-155.8517 703.3251,-146.9864"/>
<polygon fill="#000000" stroke="#000000" points="706.8263,-146.9702 703.5582,-136.892 699.8282,-146.8085 706.8263,-146.9702"/>
</g>
<!-- gen6child3 -->
<g id="node16" class="node">
<title>gen6child3</title>
<polygon fill="none" stroke="#ff0000" points="852.1515,-87.1 852.1515,-136.7 1112.1193,-136.7 1112.1193,-87.1 852.1515,-87.1"/>
<text text-anchor="middle" x="878.81" y="-120.1" font-family="Times,serif" font-size="14.00" fill="#000000">Name:</text>
<polyline fill="none" stroke="#ff0000" points="852.1515,-111.9 905.4685,-111.9 "/>
<text text-anchor="middle" x="878.81" y="-95.3" font-family="Times,serif" font-size="14.00" fill="#000000">Eric</text>
<polyline fill="none" stroke="#ff0000" points="905.4685,-87.1 905.4685,-136.7 "/>
<text text-anchor="middle" x="947.2988" y="-120.1" font-family="Times,serif" font-size="14.00" fill="#000000">Born-Died:</text>
<polyline fill="none" stroke="#ff0000" points="905.4685,-111.9 989.1291,-111.9 "/>
<text text-anchor="middle" x="947.2988" y="-95.3" font-family="Times,serif" font-size="14.00" fill="#000000">1938 - 1959</text>
<polyline fill="none" stroke="#ff0000" points="989.1291,-87.1 989.1291,-136.7 "/>
<text text-anchor="middle" x="1010.735" y="-120.1" font-family="Times,serif" font-size="14.00" fill="#000000">Age:</text>
<polyline fill="none" stroke="#ff0000" points="989.1291,-111.9 1032.3409,-111.9 "/>
<text text-anchor="middle" x="1010.735" y="-95.3" font-family="Times,serif" font-size="14.00" fill="#000000">21</text>
<polyline fill="none" stroke="#ff0000" points="1032.3409,-87.1 1032.3409,-136.7 "/>
<text text-anchor="middle" x="1072.2301" y="-120.1" font-family="Times,serif" font-size="14.00" fill="#000000">Clan:</text>
<polyline fill="none" stroke="#ff0000" points="1032.3409,-111.9 1112.1193,-111.9 "/>
<text text-anchor="middle" x="1072.2301" y="-95.3" font-family="Times,serif" font-size="14.00" fill="#000000">Huntington</text>
</g>
<!-- gen5child2&#45;&gt;gen6child3 -->
<g id="edge18" class="edge">
<title>gen5child2-&gt;gen6child3</title>
<path fill="none" stroke="#000000" d="M982.8462,-173.4517C982.7508,-165.1937 982.6429,-155.8517 982.5406,-146.9864"/>
<polygon fill="#000000" stroke="#000000" points="986.0393,-146.8509 982.424,-136.892 979.0398,-146.9318 986.0393,-146.8509"/>
</g>
<!-- gen6child4 -->
<g id="node17" class="node">
<title>gen6child4</title>
<polygon fill="none" stroke="#ff0000" points="1130.2588,-87.1 1130.2588,-136.7 1398.012,-136.7 1398.012,-87.1 1130.2588,-87.1"/>
<text text-anchor="middle" x="1160.81" y="-120.1" font-family="Times,serif" font-size="14.00" fill="#000000">Name:</text>
<polyline fill="none" stroke="#ff0000" points="1130.2588,-111.9 1191.3612,-111.9 "/>
<text text-anchor="middle" x="1160.81" y="-95.3" font-family="Times,serif" font-size="14.00" fill="#000000">Thomas</text>
<polyline fill="none" stroke="#ff0000" points="1191.3612,-87.1 1191.3612,-136.7 "/>
<text text-anchor="middle" x="1233.1915" y="-120.1" font-family="Times,serif" font-size="14.00" fill="#000000">Born-Died:</text>
<polyline fill="none" stroke="#ff0000" points="1191.3612,-111.9 1275.0218,-111.9 "/>
<text text-anchor="middle" x="1233.1915" y="-95.3" font-family="Times,serif" font-size="14.00" fill="#000000">1940 - 1992</text>
<polyline fill="none" stroke="#ff0000" points="1275.0218,-87.1 1275.0218,-136.7 "/>
<text text-anchor="middle" x="1296.6277" y="-120.1" font-family="Times,serif" font-size="14.00" fill="#000000">Age:</text>
<polyline fill="none" stroke="#ff0000" points="1275.0218,-111.9 1318.2336,-111.9 "/>
<text text-anchor="middle" x="1296.6277" y="-95.3" font-family="Times,serif" font-size="14.00" fill="#000000">52</text>
<polyline fill="none" stroke="#ff0000" points="1318.2336,-87.1 1318.2336,-136.7 "/>
<text text-anchor="middle" x="1358.1228" y="-120.1" font-family="Times,serif" font-size="14.00" fill="#000000">Clan:</text>
<polyline fill="none" stroke="#ff0000" points="1318.2336,-111.9 1398.012,-111.9 "/>
<text text-anchor="middle" x="1358.1228" y="-95.3" font-family="Times,serif" font-size="14.00" fill="#000000">Huntington</text>
</g>
<!-- gen5child2&#45;&gt;gen6child4 -->
<g id="edge19" class="edge">
<title>gen5child2-&gt;gen6child4</title>
<path fill="none" stroke="#000000" d="M1063.6587,-173.6839C1098.0505,-163.0849 1138.3448,-150.6668 1173.7522,-139.7548"/>
<polygon fill="#000000" stroke="#000000" points="1175.0747,-143.0097 1183.6003,-136.7197 1173.013,-136.3202 1175.0747,-143.0097"/>
</g>
<!-- gen7child1 -->
<g id="node18" class="node">
<title>gen7child1</title>
<polygon fill="none" stroke="#a020f0" points="710.7679,-.5 710.7679,-50.1 971.5029,-50.1 971.5029,-.5 710.7679,-.5"/>
<text text-anchor="middle" x="742.4811" y="-33.5" font-family="Times,serif" font-size="14.00" fill="#000000">Name:</text>
<polyline fill="none" stroke="#a020f0" points="710.7679,-25.3 774.1943,-25.3 "/>
<text text-anchor="middle" x="742.4811" y="-8.7" font-family="Times,serif" font-size="14.00" fill="#000000">Amanda</text>
<polyline fill="none" stroke="#a020f0" points="774.1943,-.5 774.1943,-50.1 "/>
<text text-anchor="middle" x="816.0246" y="-33.5" font-family="Times,serif" font-size="14.00" fill="#000000">Born-Died:</text>
<polyline fill="none" stroke="#a020f0" points="774.1943,-25.3 857.8549,-25.3 "/>
<text text-anchor="middle" x="816.0246" y="-8.7" font-family="Times,serif" font-size="14.00" fill="#000000">1973 - 2016</text>
<polyline fill="none" stroke="#a020f0" points="857.8549,-.5 857.8549,-50.1 "/>
<text text-anchor="middle" x="879.4608" y="-33.5" font-family="Times,serif" font-size="14.00" fill="#000000">Age:</text>
<polyline fill="none" stroke="#a020f0" points="857.8549,-25.3 901.0667,-25.3 "/>
<text text-anchor="middle" x="879.4608" y="-8.7" font-family="Times,serif" font-size="14.00" fill="#000000">43</text>
<polyline fill="none" stroke="#a020f0" points="901.0667,-.5 901.0667,-50.1 "/>
<text text-anchor="middle" x="936.2848" y="-33.5" font-family="Times,serif" font-size="14.00" fill="#000000">Clan:</text>
<polyline fill="none" stroke="#a020f0" points="901.0667,-25.3 971.5029,-25.3 "/>
<text text-anchor="middle" x="936.2848" y="-8.7" font-family="Times,serif" font-size="14.00" fill="#000000">Ellsworth</text>
</g>
<!-- gen6child2&#45;&gt;gen7child1 -->
<g id="edge20" class="edge">
<title>gen6child2-&gt;gen7child1</title>
<path fill="none" stroke="#000000" d="M743.3941,-87.0839C758.8718,-77.3002 776.8016,-65.9665 793.046,-55.6981"/>
<polygon fill="#000000" stroke="#000000" points="795.2882,-58.4214 801.871,-50.1197 791.548,-52.5044 795.2882,-58.4214"/>
</g>
<!-- gen7child2 -->
<g id="node19" class="node">
<title>gen7child2</title>
<polygon fill="none" stroke="#ff0000" points="443.6059,-.5 443.6059,-50.1 692.6649,-50.1 692.6649,-.5 443.6059,-.5"/>
<text text-anchor="middle" x="474.1501" y="-33.5" font-family="Times,serif" font-size="14.00" fill="#000000">Name:</text>
<polyline fill="none" stroke="#ff0000" points="443.6059,-25.3 504.6943,-25.3 "/>
<text text-anchor="middle" x="474.1501" y="-8.7" font-family="Times,serif" font-size="14.00" fill="#000000">Andrew</text>
<polyline fill="none" stroke="#ff0000" points="504.6943,-.5 504.6943,-50.1 "/>
<text text-anchor="middle" x="546.5246" y="-33.5" font-family="Times,serif" font-size="14.00" fill="#000000">Born-Died:</text>
<polyline fill="none" stroke="#ff0000" points="504.6943,-25.3 588.3549,-25.3 "/>
<text text-anchor="middle" x="546.5246" y="-8.7" font-family="Times,serif" font-size="14.00" fill="#000000">1976 - 2020</text>
<polyline fill="none" stroke="#ff0000" points="588.3549,-.5 588.3549,-50.1 "/>
<text text-anchor="middle" x="609.9608" y="-33.5" font-family="Times,serif" font-size="14.00" fill="#000000">Age:</text>
<polyline fill="none" stroke="#ff0000" points="588.3549,-25.3 631.5667,-25.3 "/>
<text text-anchor="middle" x="609.9608" y="-8.7" font-family="Times,serif" font-size="14.00" fill="#000000">44</text>
<polyline fill="none" stroke="#ff0000" points="631.5667,-.5 631.5667,-50.1 "/>
<text text-anchor="middle" x="662.1158" y="-33.5" font-family="Times,serif" font-size="14.00" fill="#000000">Clan:</text>
<polyline fill="none" stroke="#ff0000" points="631.5667,-25.3 692.6649,-25.3 "/>
<text text-anchor="middle" x="662.1158" y="-8.7" font-family="Times,serif" font-size="14.00" fill="#000000">Prescott</text>
</g>
<!-- gen6child2&#45;&gt;gen7child2 -->
<g id="edge21" class="edge">
<title>gen6child2-&gt;gen7child2</title>
<path fill="none" stroke="#000000" d="M665.1633,-87.0839C649.7985,-77.3002 631.9997,-65.9665 615.8738,-55.6981"/>
<polygon fill="#000000" stroke="#000000" points="617.4283,-52.5386 607.1132,-50.1197 613.6684,-58.4432 617.4283,-52.5386"/>
</g>
<!-- gen7child3 -->
<g id="node20" class="node">
<title>gen7child3</title>
<polygon fill="none" stroke="#a020f0" points="1139.9972,-.5 1139.9972,-50.1 1388.2736,-50.1 1388.2736,-.5 1139.9972,-.5"/>
<text text-anchor="middle" x="1167.4327" y="-33.5" font-family="Times,serif" font-size="14.00" fill="#000000">Name:</text>
<polyline fill="none" stroke="#a020f0" points="1139.9972,-25.3 1194.8682,-25.3 "/>
<text text-anchor="middle" x="1167.4327" y="-8.7" font-family="Times,serif" font-size="14.00" fill="#000000">Rachel</text>
<polyline fill="none" stroke="#a020f0" points="1194.8682,-.5 1194.8682,-50.1 "/>
<text text-anchor="middle" x="1236.6985" y="-33.5" font-family="Times,serif" font-size="14.00" fill="#000000">Born-Died:</text>
<polyline fill="none" stroke="#a020f0" points="1194.8682,-25.3 1278.5288,-25.3 "/>
<text text-anchor="middle" x="1236.6985" y="-8.7" font-family="Times,serif" font-size="14.00" fill="#000000">1969 - 2023</text>
<polyline fill="none" stroke="#a020f0" points="1278.5288,-.5 1278.5288,-50.1 "/>
<text text-anchor="middle" x="1300.1347" y="-33.5" font-family="Times,serif" font-size="14.00" fill="#000000">Age:</text>
<polyline fill="none" stroke="#a020f0" points="1278.5288,-25.3 1321.7406,-25.3 "/>
<text text-anchor="middle" x="1300.1347" y="-8.7" font-family="Times,serif" font-size="14.00" fill="#000000">54</text>
<polyline fill="none" stroke="#a020f0" points="1321.7406,-.5 1321.7406,-50.1 "/>
<text text-anchor="middle" x="1355.0071" y="-33.5" font-family="Times,serif" font-size="14.00" fill="#000000">Clan:</text>
<polyline fill="none" stroke="#a020f0" points="1321.7406,-25.3 1388.2736,-25.3 "/>
<text text-anchor="middle" x="1355.0071" y="-8.7" font-family="Times,serif" font-size="14.00" fill="#000000">Bradford</text>
</g>
<!-- gen6child4&#45;&gt;gen7child3 -->
<g id="edge22" class="edge">
<title>gen6child4-&gt;gen7child3</title>
<path fill="none" stroke="#000000" d="M1264.1354,-86.8517C1264.1354,-78.5937 1264.1354,-69.2517 1264.1354,-60.3864"/>
<polygon fill="#000000" stroke="#000000" points="1267.6355,-60.292 1264.1354,-50.292 1260.6355,-60.292 1267.6355,-60.292"/>
</g>
</g>
</svg>